<mxfile host="Electron" modified="2024-05-20T12:32:22.378Z" agent="Mozilla/5.0 (Windows NT 10.0; Win64; x64) AppleWebKit/537.36 (KHTML, like Gecko) draw.io/23.1.5 Chrome/120.0.6099.109 Electron/28.1.0 Safari/537.36" etag="nJuT0QU2yPE3BrVu-f6c" version="23.1.5" type="device">
  <diagram name="Page-1" id="5R03ZHuMA1EfANfO0-Cf">
    <mxGraphModel dx="1050" dy="621" grid="1" gridSize="10" guides="1" tooltips="1" connect="1" arrows="1" fold="1" page="1" pageScale="1" pageWidth="827" pageHeight="1169" math="0" shadow="0">
      <root>
        <mxCell id="0" />
        <mxCell id="1" parent="0" />
        <mxCell id="XTIZf9_XDLz32RFR3_ZM-14" value="reaction:hasOutcome" style="edgeStyle=orthogonalEdgeStyle;rounded=0;orthogonalLoop=1;jettySize=auto;html=1;entryX=0.5;entryY=1;entryDx=0;entryDy=0;" parent="1" source="XTIZf9_XDLz32RFR3_ZM-3" target="XTIZf9_XDLz32RFR3_ZM-5" edge="1">
          <mxGeometry relative="1" as="geometry" />
        </mxCell>
        <mxCell id="XTIZf9_XDLz32RFR3_ZM-17" value="rdfs:subClassOf" style="edgeStyle=orthogonalEdgeStyle;rounded=0;orthogonalLoop=1;jettySize=auto;html=1;entryX=0;entryY=0.5;entryDx=0;entryDy=0;" parent="1" source="XTIZf9_XDLz32RFR3_ZM-3" target="XTIZf9_XDLz32RFR3_ZM-16" edge="1">
          <mxGeometry relative="1" as="geometry" />
        </mxCell>
        <mxCell id="kob_xvQ5I9-j6zz6-x-V-6" value="cbi:affectedBy" style="edgeStyle=orthogonalEdgeStyle;rounded=0;orthogonalLoop=1;jettySize=auto;html=1;entryX=0;entryY=0.5;entryDx=0;entryDy=0;exitX=0;exitY=0.5;exitDx=0;exitDy=0;" parent="1" source="XTIZf9_XDLz32RFR3_ZM-4" target="XTIZf9_XDLz32RFR3_ZM-3" edge="1">
          <mxGeometry x="0.6061" relative="1" as="geometry">
            <mxPoint as="offset" />
            <mxPoint x="10" y="410" as="sourcePoint" />
          </mxGeometry>
        </mxCell>
        <mxCell id="XTIZf9_XDLz32RFR3_ZM-3" value="cbi:IllusoryTruthEffect" style="rounded=1;arcSize=10;whiteSpace=wrap;html=1;align=center;fillColor=#f0a30a;strokeColor=#BD7000;fontColor=#000000;" parent="1" vertex="1">
          <mxGeometry x="490" y="570" width="150" height="50" as="geometry" />
        </mxCell>
        <mxCell id="XTIZf9_XDLz32RFR3_ZM-9" value="cbi:receives" style="edgeStyle=orthogonalEdgeStyle;rounded=0;orthogonalLoop=1;jettySize=auto;html=1;entryX=0;entryY=0.5;entryDx=0;entryDy=0;" parent="1" source="XTIZf9_XDLz32RFR3_ZM-4" target="XTIZf9_XDLz32RFR3_ZM-8" edge="1">
          <mxGeometry relative="1" as="geometry" />
        </mxCell>
        <mxCell id="XTIZf9_XDLz32RFR3_ZM-10" value="cbi:affectedBy" style="edgeStyle=orthogonalEdgeStyle;rounded=0;orthogonalLoop=1;jettySize=auto;html=1;entryX=0.5;entryY=0;entryDx=0;entryDy=0;" parent="1" source="XTIZf9_XDLz32RFR3_ZM-4" target="XTIZf9_XDLz32RFR3_ZM-7" edge="1">
          <mxGeometry relative="1" as="geometry" />
        </mxCell>
        <mxCell id="XTIZf9_XDLz32RFR3_ZM-4" value="cbi:BiasedAgent" style="rounded=1;arcSize=10;whiteSpace=wrap;html=1;align=center;fillColor=#f0a30a;strokeColor=#BD7000;fontColor=#000000;" parent="1" vertex="1">
          <mxGeometry x="150" y="290" width="150" height="50" as="geometry" />
        </mxCell>
        <mxCell id="XTIZf9_XDLz32RFR3_ZM-11" value="reaction:hasOutcome" style="edgeStyle=orthogonalEdgeStyle;rounded=0;orthogonalLoop=1;jettySize=auto;html=1;entryX=1;entryY=0.5;entryDx=0;entryDy=0;" parent="1" source="XTIZf9_XDLz32RFR3_ZM-5" target="XTIZf9_XDLz32RFR3_ZM-7" edge="1">
          <mxGeometry relative="1" as="geometry" />
        </mxCell>
        <mxCell id="XTIZf9_XDLz32RFR3_ZM-12" value="cbi:affects" style="edgeStyle=orthogonalEdgeStyle;rounded=0;orthogonalLoop=1;jettySize=auto;html=1;entryX=0.5;entryY=1;entryDx=0;entryDy=0;" parent="1" source="XTIZf9_XDLz32RFR3_ZM-5" target="XTIZf9_XDLz32RFR3_ZM-8" edge="1">
          <mxGeometry relative="1" as="geometry" />
        </mxCell>
        <mxCell id="XTIZf9_XDLz32RFR3_ZM-5" value="cbi:BeliefFormation" style="rounded=1;arcSize=10;whiteSpace=wrap;html=1;align=center;fillColor=#f0a30a;strokeColor=#BD7000;fontColor=#000000;" parent="1" vertex="1">
          <mxGeometry x="490" y="420" width="150" height="50" as="geometry" />
        </mxCell>
        <mxCell id="XTIZf9_XDLz32RFR3_ZM-15" value="cbi:disseminates" style="edgeStyle=orthogonalEdgeStyle;rounded=0;orthogonalLoop=1;jettySize=auto;html=1;exitX=0;exitY=0.5;exitDx=0;exitDy=0;entryX=1;entryY=0.5;entryDx=0;entryDy=0;" parent="1" source="XTIZf9_XDLz32RFR3_ZM-6" target="XTIZf9_XDLz32RFR3_ZM-8" edge="1">
          <mxGeometry relative="1" as="geometry" />
        </mxCell>
        <mxCell id="XTIZf9_XDLz32RFR3_ZM-6" value="cbi:Medium" style="rounded=1;arcSize=10;whiteSpace=wrap;html=1;align=center;fillColor=#f0a30a;strokeColor=#BD7000;fontColor=#000000;" parent="1" vertex="1">
          <mxGeometry x="770" y="290" width="150" height="50" as="geometry" />
        </mxCell>
        <mxCell id="XTIZf9_XDLz32RFR3_ZM-18" value="dbpedia-owl:uses" style="edgeStyle=orthogonalEdgeStyle;rounded=0;orthogonalLoop=1;jettySize=auto;html=1;entryX=1;entryY=0.5;entryDx=0;entryDy=0;" parent="1" source="XTIZf9_XDLz32RFR3_ZM-7" target="XTIZf9_XDLz32RFR3_ZM-6" edge="1">
          <mxGeometry relative="1" as="geometry">
            <Array as="points">
              <mxPoint x="225" y="660" />
              <mxPoint x="940" y="660" />
              <mxPoint x="940" y="315" />
            </Array>
          </mxGeometry>
        </mxCell>
        <mxCell id="XTIZf9_XDLz32RFR3_ZM-7" value="cbi:Repetition" style="rounded=1;arcSize=10;whiteSpace=wrap;html=1;align=center;fillColor=#f0a30a;strokeColor=#BD7000;fontColor=#000000;" parent="1" vertex="1">
          <mxGeometry x="150" y="420" width="150" height="50" as="geometry" />
        </mxCell>
        <mxCell id="XTIZf9_XDLz32RFR3_ZM-8" value="fs:Information" style="rounded=1;arcSize=10;whiteSpace=wrap;html=1;align=center;fillColor=#f0a30a;strokeColor=#BD7000;fontColor=#000000;" parent="1" vertex="1">
          <mxGeometry x="490" y="290" width="150" height="50" as="geometry" />
        </mxCell>
        <mxCell id="XTIZf9_XDLz32RFR3_ZM-16" value="cbi:CognitiveBias" style="rounded=1;arcSize=10;whiteSpace=wrap;html=1;align=center;fillColor=#f0a30a;strokeColor=#BD7000;fontColor=#000000;" parent="1" vertex="1">
          <mxGeometry x="770" y="420" width="150" height="50" as="geometry" />
        </mxCell>
        <mxCell id="kob_xvQ5I9-j6zz6-x-V-1" value="&lt;p style=&quot;margin: 4px 0px 0px; text-decoration: underline; font-size: 11px;&quot;&gt;&lt;b&gt;&lt;font style=&quot;font-size: 11px;&quot;&gt;Prefixes&lt;/font&gt;&lt;/b&gt;&lt;/p&gt;&lt;hr style=&quot;font-size: 11px;&quot;&gt;&lt;div style=&quot;text-align: left; font-size: 11px;&quot;&gt;&lt;span style=&quot;background-color: initial;&quot;&gt;&lt;font style=&quot;font-size: 11px;&quot;&gt;&amp;nbsp;&amp;nbsp;&lt;/font&gt;&lt;/span&gt;&lt;span style=&quot;background-color: initial;&quot;&gt;fs:&amp;nbsp;&lt;/span&gt;&lt;a style=&quot;background: transparent; margin: 0px 8px 8px 0px; padding: 0px; vertical-align: baseline; display: inline-block;&quot; class=&quot;iri&quot; href=&quot;https://w3id.org/framester/data/framestercore/Preference&quot;&gt;&lt;font color=&quot;#000000&quot;&gt;https://w3id.org/framester/data/framestercore&lt;/font&gt;&lt;/a&gt;&lt;/div&gt;&lt;p style=&quot;text-align: left; margin: 0px 0px 0px 8px; font-size: 11px;&quot;&gt;&lt;span style=&quot;background-color: initial;&quot;&gt;&lt;font style=&quot;font-size: 11px;&quot;&gt;cbi:&amp;nbsp;&lt;/font&gt;&lt;/span&gt;&lt;span style=&quot;background-color: initial; font-size: 12px;&quot;&gt;https://github.com/ranacoskun/cognitive_bias_ontology&lt;/span&gt;&lt;/p&gt;&lt;p style=&quot;text-align: left; margin: 0px 0px 0px 8px; font-size: 11px;&quot;&gt;&lt;font style=&quot;font-size: 11px;&quot;&gt;rdfs: https://www.w3.org/2000/01/rdf-schema#&lt;/font&gt;&lt;/p&gt;&lt;p style=&quot;text-align: left; margin: 0px 0px 0px 8px; font-size: 11px;&quot;&gt;&lt;font style=&quot;font-size: 11px;&quot;&gt;&lt;span style=&quot;background-color: initial;&quot;&gt;classification:&amp;nbsp;http://www.ontologydesignpatterns.org/cp/owl/classification.owl&amp;nbsp;&lt;/span&gt;&lt;/font&gt;&lt;/p&gt;&lt;p style=&quot;text-align: left; margin: 0px 0px 0px 8px; font-size: 11px;&quot;&gt;reaction: http://www.ontologydesignpatterns.org/cp/owl/reaction.owl&lt;/p&gt;&lt;p style=&quot;text-align: left; margin: 0px 0px 0px 8px; font-size: 11px;&quot;&gt;&lt;span style=&quot;background-color: initial;&quot;&gt;dbpedia-owl:&amp;nbsp;http://dbpedia.org/ontology/&lt;/span&gt;&lt;br&gt;&lt;/p&gt;" style="verticalAlign=top;align=center;overflow=fill;html=1;whiteSpace=wrap;" parent="1" vertex="1">
          <mxGeometry x="580" y="120" width="444" height="130" as="geometry" />
        </mxCell>
        <mxCell id="kob_xvQ5I9-j6zz6-x-V-2" value="fs:People" style="rounded=1;arcSize=10;whiteSpace=wrap;html=1;align=center;fillColor=#f0a30a;strokeColor=#BD7000;fontColor=#000000;" parent="1" vertex="1">
          <mxGeometry x="400" y="200" width="150" height="50" as="geometry" />
        </mxCell>
        <mxCell id="kob_xvQ5I9-j6zz6-x-V-3" value="classification:isClassifiedBy" style="edgeStyle=orthogonalEdgeStyle;rounded=0;orthogonalLoop=1;jettySize=auto;html=1;exitX=0.25;exitY=0;exitDx=0;exitDy=0;entryX=0;entryY=0.5;entryDx=0;entryDy=0;" parent="1" source="XTIZf9_XDLz32RFR3_ZM-4" target="kob_xvQ5I9-j6zz6-x-V-2" edge="1">
          <mxGeometry x="0.2178" relative="1" as="geometry">
            <mxPoint x="450" y="737" as="sourcePoint" />
            <mxPoint x="260" y="737" as="targetPoint" />
            <mxPoint x="1" as="offset" />
          </mxGeometry>
        </mxCell>
      </root>
    </mxGraphModel>
  </diagram>
</mxfile>
